<?xml version="1.0" standalone="no"?>
<!DOCTYPE svg PUBLIC "-//W3C//DTD SVG 20010904//EN"
 "http://www.w3.org/TR/2001/REC-SVG-20010904/DTD/svg10.dtd">
<svg version="1.0" xmlns="http://www.w3.org/2000/svg"
 width="800.000000pt" height="800.000000pt" viewBox="0 0 800.000000 800.000000"
 preserveAspectRatio="xMidYMid meet">
<metadata>
Created by potrace 1.11, written by Peter Selinger 2001-2013
</metadata>
<g transform="translate(0.000000,800.000000) scale(0.100000,-0.100000)"
fill="#000000" stroke="none">
<path d="M2990 5989 c-61 -12 -118 -54 -155 -113 l-30 -49 -3 -308 -3 -308
-479 -3 -480 -3 -32 -33 c-27 -27 -33 -40 -33 -77 0 -37 6 -50 33 -77 l32 -33
960 -3 960 -2 0 -330 0 -330 -960 -2 -960 -3 -32 -33 c-27 -27 -33 -40 -33
-77 0 -37 6 -50 33 -77 l32 -33 480 -3 480 -3 0 -931 c0 -684 3 -941 12 -970
17 -56 79 -123 136 -145 43 -16 85 -18 482 -18 l435 0 50 26 c62 32 110 93
124 159 7 33 11 234 11 575 l0 523 383 5 c292 4 399 8 453 20 430 93 782 397
943 812 194 500 82 1068 -286 1455 -147 155 -318 266 -510 331 -187 63 -163
62 -1123 65 -497 1 -894 -2 -920 -7z m1870 -307 c294 -78 530 -280 669 -573
189 -396 118 -871 -175 -1188 -90 -97 -177 -162 -299 -222 -188 -93 -185 -92
-777 -97 l-518 -3 -2 -642 -3 -642 -332 -3 -333 -2 0 889 0 890 723 3 722 3
60 23 c169 64 294 203 339 378 20 78 21 222 1 299 -51 201 -215 365 -403 404
-36 7 -280 11 -747 11 l-695 0 0 251 0 250 843 -4 c832 -3 843 -3 927 -25z
m-343 -783 c164 -79 195 -335 55 -461 -22 -20 -58 -41 -79 -47 -21 -6 -129
-11 -240 -11 l-203 0 0 270 0 270 212 0 c194 0 215 -2 255 -21z"/>
</g>
</svg>
